<svg width="66" height="32" viewBox="0 0 66 32" fill="none" xmlns="http://www.w3.org/2000/svg">
<path d="M57.9101 14.97H41.0201C36.9401 14.97 33.6201 11.65 33.6201 7.57004C33.6201 3.49004 36.9401 0.170044 41.0201 0.170044H57.9101C61.9901 0.170044 65.3101 3.49004 65.3101 7.57004C65.3101 11.65 61.9901 14.97 57.9101 14.97ZM41.0201 3.15004C38.5801 3.15004 36.6001 5.13004 36.6001 7.57004C36.6001 10.01 38.5801 11.99 41.0201 11.99H57.9101C60.3501 11.99 62.3301 10.01 62.3301 7.57004C62.3301 5.13004 60.3501 3.15004 57.9101 3.15004H41.0201Z" fill="#8732F5"/>
<path d="M57.9101 31.8601H41.0201C36.9401 31.8601 33.6201 28.5401 33.6201 24.4601C33.6201 20.3801 36.9401 17.0601 41.0201 17.0601H57.9101C61.9901 17.0601 65.3101 20.3801 65.3101 24.4601C65.3101 28.5401 61.9901 31.8601 57.9101 31.8601ZM41.0201 20.0401C38.5801 20.0401 36.6001 22.0201 36.6001 24.4601C36.6001 26.9001 38.5801 28.8801 41.0201 28.8801H57.9101C60.3501 28.8801 62.3301 26.9001 62.3301 24.4601C62.3301 22.0201 60.3501 20.0401 57.9101 20.0401H41.0201Z" fill="#8732F5"/>
<path d="M24.7099 0.170044H7.81992C3.73992 0.170044 0.419922 3.49004 0.419922 7.57004C0.419922 11.65 3.73992 14.97 7.81992 14.97H17.3099V24.46C17.3099 28.54 20.6299 31.86 24.7099 31.86C28.7899 31.86 32.1099 28.54 32.1099 24.46V7.57004C32.1099 3.49004 28.7899 0.170044 24.7099 0.170044ZM17.3099 7.57004V11.99H7.81992C5.37992 11.99 3.39993 10.01 3.39993 7.57004C3.39993 5.13004 5.37992 3.15004 7.81992 3.15004H18.7899C17.8599 4.39004 17.3099 5.91004 17.3099 7.57004ZM29.1299 24.46C29.1299 26.9 27.1499 28.88 24.7099 28.88C22.2699 28.88 20.2899 26.9 20.2899 24.46V14.97H24.7099C26.3699 14.97 27.8999 14.41 29.1299 13.49V24.46ZM24.5199 11.99H20.2899V7.75004C20.2899 5.62004 21.7199 3.68004 23.8099 3.24004C23.8799 3.22004 23.9599 3.21004 24.0299 3.20004C25.2099 3.01004 26.2799 3.95004 26.2799 5.15004V5.87004H27.1599C28.2699 5.87004 29.1999 6.79004 29.1199 7.89004C29.1199 7.91004 29.1199 7.93004 29.1199 7.95004C28.9199 10.27 26.8599 11.99 24.5299 11.99H24.5199Z" fill="#8732F5"/>
</svg>
